<svg xmlns="http://www.w3.org/2000/svg" width="512" height="512" viewBox="0 0 512 512">
  <path d="M 397.83 207.16 L 457.50 213.17 L 457.50 298.83 L 397.83 304.84 L 390.82 321.76 L 428.77 368.20 L 368.20 428.77 L 321.76 390.82 L 304.84 397.83 L 298.83 457.50 L 213.17 457.50 L 207.16 397.83 L 190.24 390.82 L 143.80 428.77 L 83.23 368.20 L 121.18 321.76 L 114.17 304.84 L 54.50 298.83 L 54.50 213.17 L 114.17 207.16 L 121.18 190.24 L 83.23 143.80 L 143.80 83.23 L 190.24 121.18 L 207.16 114.17 L 213.17 54.50 L 298.83 54.50 L 304.84 114.17 L 321.76 121.18 L 368.20 83.23 L 428.77 143.80 L 390.82 190.24 Z M 330.00 256.00 A 74 74 0 1 0 182.00 256.00 A 74 74 0 1 0 330.00 256.00 Z" fill="#000000" fill-rule="evenodd"
        stroke="#000000" stroke-width="9" stroke-linejoin="round"/>
</svg>